<svg xmlns="http://www.w3.org/2000/svg" xmlns:xlink="http://www.w3.org/1999/xlink" version="1.1" width="640" height="480" viewBox="0 0 640 480" xml:space="preserve">
<defs>
</defs>
<g transform="matrix(0.79 0 0 0.79 277.25 236.75)"  >
<g style=""   >
		<g transform="matrix(1 0 0 1 1 492.71)" id="Layer_1"  >
<path style="stroke: none; stroke-width: 1; stroke-dasharray: none; stroke-linecap: butt; stroke-dashoffset: 0; stroke-linejoin: miter; stroke-miterlimit: 4; fill: rgb(0,0,0); fill-rule: nonzero; opacity: 1;"  transform=" translate(-513, -1004.71)" d="M 1 984.468628 C 2.42434 986.11084 3.014109 988.712402 6.096485 989.658813 C 8.518521 990.402527 8.209511 993.215149 8.235531 995.332458 C 8.329708 1002.99585 8.416151 1010.662598 8.278308 1018.324036 C 8.216361 1021.767212 9.379877 1022.869812 12.933343 1022.867432 C 67.237244 1022.831421 121.542824 1022.72467 175.844406 1023.123352 C 196.60466 1023.275696 217.373489 1022.446655 238.099503 1023.128113 C 251.561523 1023.57074 265.085938 1023.527039 278.438812 1023.17627 C 299.077789 1022.633972 319.650024 1024.46875 340.30661 1023.258301 C 361.059509 1022.042053 381.917694 1023.125244 402.728546 1023.64917 C 416.368408 1023.992676 430.019684 1023.97876 443.66568 1023.964233 C 473.61676 1023.932373 503.586731 1024.423462 533.513062 1023.516479 C 559.330566 1022.73407 585.113586 1024.919678 610.88501 1023.604675 C 633.518921 1022.449768 656.125122 1024.494385 678.726013 1023.614624 C 695.023193 1022.980286 711.298645 1024.234497 727.571777 1023.642334 C 756.522156 1022.588928 785.481506 1022.700195 814.4328 1022.998596 C 838.568542 1023.247314 862.697998 1022.387817 886.847046 1023.400818 C 902.941895 1024.075928 919.102112 1023.082703 935.233643 1023.040894 C 944.720093 1023.016235 954.207703 1023.387085 963.694641 1023.588867 C 983.849731 1024.017578 1003.932678 1021.932434 1024.536621 1021.931763 C 1025 1022.999573 1025 1023.999207 1025 1024.960571 C 683.666687 1024.960571 342.333344 1024.960571 1 1024.960571 C 1 1011.593201 1 998.265259 1 984.468628 z" stroke-linecap="round" />
</g>
		<g transform="matrix(1 0 0 1 -510.38 -492.18)" id="Layer_1"  >
<path style="stroke: none; stroke-width: 1; stroke-dasharray: none; stroke-linecap: butt; stroke-dashoffset: 0; stroke-linejoin: miter; stroke-miterlimit: 4; fill: rgb(0,0,0); fill-rule: nonzero; opacity: 1;"  transform=" translate(-1.62, -19.82)" d="M 1.5 1 C 2.064006 11.632046 2.164824 22.264122 2.156212 32.896107 C 2.154756 34.693142 1.6819 36.489796 1.213421 38.643311 C 1 26.333334 1 13.666667 1.5 1 z" stroke-linecap="round" />
</g>
		<g transform="matrix(1 0 0 1 -510.46 397.05)" id="Layer_1"  >
<path style="stroke: none; stroke-width: 1; stroke-dasharray: none; stroke-linecap: butt; stroke-dashoffset: 0; stroke-linejoin: miter; stroke-miterlimit: 4; fill: rgb(0,0,0); fill-rule: nonzero; opacity: 1;"  transform=" translate(-1.54, -909.05)" d="M 1 892.468628 C 2.684132 903.072998 2.102629 914.172058 1.191704 925.636353 C 1 914.979126 1 903.958191 1 892.468628 z" stroke-linecap="round" />
</g>
		<g transform="matrix(1 0 0 1 43.76 -4.47)" id="Layer_1"  >
<path style="stroke: none; stroke-width: 1; stroke-dasharray: none; stroke-linecap: butt; stroke-dashoffset: 0; stroke-linejoin: miter; stroke-miterlimit: 4; fill: rgb(0,0,0); fill-rule: nonzero; opacity: 1;"  transform=" translate(-555.76, -507.53)" d="M 383.375 302.339111 C 421.009979 271.612152 463.712158 252.66188 511.137634 244.993134 C 549.944031 238.718094 588.26001 242.195236 626.032471 253.472778 C 668.017273 266.007965 704.627625 287.497742 736.938293 316.847443 C 773.826782 350.355499 799.645386 390.711639 813.888611 438.547974 C 822.141541 466.265594 825.105896 494.545105 824.27771 523.316162 C 823.711182 542.997559 820.666443 562.331787 815.616638 581.357117 C 815.138367 583.159119 814.845825 585.148926 812.41864 585.16156 C 803.295654 585.209167 794.172302 585.180664 784.846008 585.180664 C 784.117554 580.098694 785.867737 575.835144 786.996826 571.65155 C 793.357422 548.084839 795.111694 524.065918 793.53125 499.881073 C 790.705017 456.634033 778.803833 416.178802 754.893982 379.597626 C 734.567688 348.499054 708.444275 323.329529 676.600098 304.473145 C 645.512573 286.064789 612.045715 273.720734 575.921082 269.47934 C 523.628052 263.339539 475.139465 274.875 429.736877 300.94693 C 408.769012 312.987457 389.78772 327.47998 373.772247 345.623627 C 362.180817 358.755432 352.18866 373.071106 343.504486 388.319336 C 338.722443 396.715942 334.267487 405.276062 329.664307 413.762207 C 325.754028 420.970856 324.050934 428.939575 320.790161 436.371063 C 323.429596 433.123199 324.320679 428.460907 329.802307 426.677612 C 331.065399 432.398102 329.676178 437.74704 328.740417 442.899689 C 323.75592 470.346191 318.382629 497.713867 311.904205 524.863281 C 306.383057 548.00116 306.63562 570.622498 318.746399 592.146973 C 328.484283 609.454163 340.698425 624.71698 355.07782 638.291199 C 376.762726 658.761963 401.438416 674.756531 429.178253 685.61554 C 454.499786 695.527832 480.875671 701.804993 507.801849 705.609741 C 527.583008 708.405029 547.454834 710.291138 567.463989 709.766907 C 602.926636 708.837952 637.540894 702.702881 671.372681 692.166565 C 685.029663 687.913269 698.453613 682.973328 711.840515 676.555115 C 708.598572 673.568054 704.671082 672.670044 701.263794 670.941467 C 668.237854 654.186768 641.296692 630.800903 622.610901 598.558105 C 612.736572 581.519592 606.399597 563.217896 604.799072 543.435303 C 604.417786 538.721741 605.119873 534.06012 606.068176 529.560303 C 606.926147 525.488708 605.417664 524.126648 601.97937 523.219788 C 588.627991 519.698425 575.303589 516.075073 561.970093 512.485962 C 561.362976 512.322571 560.765198 512.124756 560.081238 511.479065 C 566.309448 510.550934 572.343445 509.187073 578.703613 506.215027 C 571.163269 499.207214 562.456909 494.294067 556.969177 485.895599 C 539.890991 493.199097 523.613708 501.945374 506.939423 509.857208 C 505.585754 510.499542 504.233826 511.147278 502.862762 511.750946 C 499.800201 513.099304 497.35553 512.442261 495.646332 509.470154 C 493.966309 506.548706 494.469299 503.793793 497.049072 501.917114 C 499.994781 499.774231 503.190918 497.870361 506.502777 496.352661 C 534.956787 483.31308 563.044067 469.473206 591.844604 457.189514 C 594.55188 456.034821 597.257996 454.959503 599.302856 458.231781 C 601.554932 461.835571 599.165894 464.178802 596.531982 465.580261 C 588.459656 469.875549 580.175659 473.772736 571.980652 477.838104 C 569.484436 479.076416 566.67688 479.833771 564.605347 482.575623 C 570.717896 489.892487 578.51178 494.724518 587.122498 498.36731 C 605.194092 506.012543 623.702881 506.995544 642.773804 502.507629 C 657.36615 499.073608 671.460999 494.233307 686.048096 489.004669 C 681.155518 485.328766 676.887878 482.839203 670.488159 484.254852 C 650.653198 488.642273 630.572998 488.027832 610.463562 485.772705 C 615.503296 483.037048 621.142578 483.490234 626.500183 482.763794 C 637.878906 481.220978 648.614746 478.242218 658.067871 471.405029 C 662.914124 467.899811 666.374695 463.345947 669.349365 458.249054 C 671.794373 454.059662 671.058655 451.27774 666.657593 449.06369 C 660.241577 445.835999 654.341125 441.855011 649.142151 436.776581 C 645.554565 433.272217 645.382751 430.07663 648.44873 426.335602 C 650.402161 423.952179 652.949036 421.679932 650.981018 417.687561 C 645.746521 418.948425 640.218811 418.566254 635.75238 422.71991 C 632.621887 425.631256 629.171204 424.219635 626.407898 421.522675 C 623.606689 418.788757 623.555481 414.192169 626.635254 410.63736 C 633.038879 403.245972 640.519348 397.080048 649.822876 393.762054 C 668.155945 387.223724 686.782593 387.249054 705.168396 393.211243 C 714.953125 396.384277 720.286194 410.881531 716.308228 420.496857 C 714.938965 423.806519 711.946106 424.828735 708.93866 426.427216 C 709.251892 428.279633 709.45575 430.074341 709.870422 431.818878 C 710.8172 435.801971 709.762146 438.332764 705.307861 438.81546 C 703.813171 438.977417 702.481689 439.682159 701.394958 440.842773 C 697.144287 445.382599 692.125 448.943329 686.778381 452.054047 C 682.365784 454.621338 680.526184 457.938385 681.953552 463.282562 C 682.954895 467.031647 684.255737 470.591064 686.032104 473.946198 C 688.577332 478.753662 692.197266 481.989624 698.242737 481.911804 C 704.362915 481.833038 709.551575 480.732788 711.755066 474.11972 C 711.977905 473.451019 712.417603 472.971893 713.752136 473.189484 C 714.783264 477.47757 713.126831 481.39682 711.276672 485.173767 C 700.810608 506.539368 683.382324 518.984497 660.55426 524.322205 C 653.728699 525.918213 646.756653 526.631042 639.739868 526.234924 C 636.948608 526.077454 635.642822 527.188232 634.562744 529.705017 C 627.61554 545.893555 631.158752 560.570068 641.716064 573.580505 C 656.456421 591.745789 675.28418 603.789429 698.541016 608.148865 C 703.420715 609.063599 708.449707 609.560669 713.41333 609.586304 C 739.910278 609.723206 766.408264 609.65033 792.905945 609.645447 C 794.238892 609.645142 795.628906 609.843689 796.896057 609.543274 C 813.004883 605.724121 820.242859 617.973572 829.096252 627.275513 C 829.366028 627.558899 829.280884 628.180054 829.482605 629.344482 C 795.724487 629.335876 762.196533 629.698486 728.628357 627.824341 C 743.584229 632.613831 758.452454 637.564087 773.180847 642.932068 C 782.725586 646.410889 791.088623 651.582397 798.311035 658.7948 C 804.790222 665.264893 811.684937 671.317383 818.310669 677.64386 C 819.424011 678.706848 821.148987 679.544006 821.00116 681.273743 C 801.479248 681.273743 782.033386 681.34491 762.588867 681.210327 C 758.951843 681.185181 756.343567 682.306152 753.871765 684.982117 C 740.626221 699.321594 726.678711 712.947388 710.496094 723.991089 C 676.027039 747.514465 638.34967 763.076111 596.964111 769.46698 C 546.694153 777.229797 497.496094 773.014771 450.25116 754.193481 C 403.298462 735.488525 364.658905 705.443787 334.180939 664.764893 C 310.684113 633.403687 294.706421 598.865967 287.234375 560.514832 C 282.062134 533.967712 280.06485 507.267731 284.421844 480.208221 C 292.750977 428.47937 312.207947 381.711975 345.098511 340.807587 C 356.391479 326.763123 369.583954 314.470734 383.375 302.339111 M 556.634033 741.662598 C 606.946716 741.842529 654.497803 731.151123 698.36084 705.413696 C 596.748779 737.723755 496.417755 735.597107 397.388947 695.00061 C 411.016693 704.591736 425.410553 712.751282 440.764771 719.083191 C 477.546692 734.251648 516.152954 740.326416 556.634033 741.662598 z" stroke-linecap="round" />
</g>
		<g transform="matrix(1 0 0 1 17.95 -12.69)" id="Layer_1"  >
<path style="stroke: none; stroke-width: 1; stroke-dasharray: none; stroke-linecap: butt; stroke-dashoffset: 0; stroke-linejoin: miter; stroke-miterlimit: 4; fill: rgb(0,0,0); fill-rule: nonzero; opacity: 1;"  transform=" translate(-529.95, -499.31)" d="M 387.833557 645.226257 C 367.923523 630.834106 350.611908 614.443176 338.069519 593.464233 C 328.184509 576.930176 325.149933 558.774414 327.135468 540.047668 C 331.014465 503.462372 337.758759 467.300293 348.796661 432.194366 C 358.615326 400.966125 373.001282 371.917938 396.790222 348.554291 C 412.373016 333.250061 430.895782 322.740387 451.436035 315.39978 C 473.729858 307.432434 496.671753 303.702728 520.239136 302.550049 C 549.745972 301.106873 578.716675 303.915466 606.939514 312.63443 C 622.250427 317.36441 636.660461 324.317596 650.010986 333.315247 C 652.344116 334.887634 654.793091 336.288025 657.14978 337.743866 C 659.9104 336.262817 660.842712 333.613861 662.463379 331.585663 C 664.879456 328.562195 667.851868 326.559052 671.732056 326.352264 C 674.858215 326.185638 677.282959 327.527222 678.124084 330.770325 C 678.979431 334.068085 677.694885 336.195862 674.406616 337.257935 C 672.836609 337.765015 671.26825 338.464813 669.901794 339.379913 C 665.665039 342.217102 665.626221 344.983459 669.407349 348.427094 C 677.785095 356.05719 685.981201 363.881287 693.32959 372.528534 C 695.352112 374.908447 697.513916 376.437958 700.774231 376.944183 C 710.968872 378.527069 719.552612 383.075378 726.461731 391.010223 C 732.81073 398.301758 733.842773 406.740753 733.14856 415.763245 C 733.061829 416.890747 732.574036 418.029846 732.082703 419.074493 C 731.187988 420.976318 729.916016 422.594116 727.501465 422.113892 C 725.237244 421.663605 724.90863 419.718292 724.823242 417.847137 C 724.638672 413.802521 723.546814 410.040253 722.028625 406.289185 C 717.824646 395.902222 709.727295 389.654602 699.629456 386.297455 C 688.208862 382.500549 679.290344 375.068451 670.10376 367.954132 C 647.018738 350.076416 621.114075 339.993134 591.799438 339.258972 C 583.644836 339.054749 575.532349 339.651337 567.398132 340.668671 C 549.886719 342.858643 536.682007 352.784485 524.078918 363.868347 C 515.721741 371.218109 506.450317 376.62558 495.93988 380.494415 C 472.700409 389.048706 455.009155 404.94162 440.213348 424.413574 C 438.572754 426.572693 438.98822 430.927521 435.61441 430.797241 C 433.095886 430.699982 430.535767 428.504669 428.220337 426.914368 C 421.074768 422.006836 413.641449 417.219482 410.437622 408.58548 C 403.89093 390.942719 413.914368 374.454041 433.835449 369.749817 C 440.250977 368.234802 446.721771 368.479797 453.21167 368.99118 C 454.487061 369.091675 455.785034 369.838684 457.539093 368.605072 C 454.640564 360.765442 447.969879 357.494019 440.724243 355.482819 C 424.569733 350.998871 405.341125 358.437531 395.940552 372.417999 C 387.574127 384.860626 383.894897 398.044342 390.556854 412.422943 C 395.585297 423.275909 405.035583 429.584503 415.194519 434.911316 C 420.316589 437.597046 425.631348 439.915222 431.772614 442.833832 C 426.792419 442.923676 426.092072 446.156738 424.847168 449.228119 C 420.223511 460.63562 415.270844 471.879242 413.876434 484.334015 C 411.398682 506.465149 413.683197 527.542786 426.573059 546.494446 C 430.114685 551.70166 435.074188 555.394592 440.170593 558.863464 C 489.788116 592.635559 535.786133 630.647522 576.359436 675.015564 C 580.961609 680.048157 585.731384 684.975342 589.147888 690.964966 C 589.950562 692.372131 590.605347 693.863586 591.294128 695.247803 C 589.687195 696.934998 587.92627 696.325195 586.359558 696.352051 C 549.625427 696.981873 513.204102 694.17627 477.495056 685.174011 C 445.459167 677.097717 415.163635 664.867249 387.833557 645.226257 z" stroke-linecap="round" />
</g>
		<g transform="matrix(1 0 0 1 39.58 -54.14)" id="Layer_1"  >
<path style="stroke: none; stroke-width: 1; stroke-dasharray: none; stroke-linecap: butt; stroke-dashoffset: 0; stroke-linejoin: miter; stroke-miterlimit: 4; fill: rgb(0,0,0); fill-rule: nonzero; opacity: 1;"  transform=" translate(-551.58, -457.86)" d="M 570.539124 451.625732 C 572.384399 450.902313 574.213623 451.099304 575.73877 449.3909 C 570.911255 447.209351 566.083679 448.687134 561.536377 448.872162 C 548.705627 449.394196 535.88916 448.661255 523.06842 448.976471 C 519.756226 449.057892 516.531494 448.204254 516.420105 443.912201 C 516.308899 439.62738 518.788635 438.399261 522.807068 438.212402 C 536.795593 437.56189 550.78009 438.050751 564.765198 437.996063 C 572.742249 437.964874 580.719482 437.990417 588.972412 437.990417 C 590.504944 440.20459 588.60199 442.41864 588.109863 444.889374 C 588.489563 445.122955 588.850586 445.510162 589.258972 445.569183 C 591.805054 445.937073 594.962769 445.354279 595.328308 449.197357 C 595.692627 453.026825 593.194031 455.148926 590.093445 456.230743 C 577.071899 460.773926 564.009705 465.147614 550.587585 468.485321 C 539.145691 471.330597 527.485291 473.383453 516.32251 477.326508 C 513.109802 478.461304 510.266998 477.841309 508.544098 474.808929 C 506.673248 471.516083 508.665436 469.109833 511.034668 467.038757 C 514.034973 464.416077 517.894775 464.805939 521.462524 464.272797 C 534.512939 462.32254 546.588806 456.710815 559.496399 454.221466 C 563.081726 453.530029 566.609619 452.540619 570.539124 451.625732 z" stroke-linecap="round" />
</g>
		<g transform="matrix(1 0 0 1 224.27 -44.25)" id="Layer_1"  >
<path style="stroke: none; stroke-width: 1; stroke-dasharray: none; stroke-linecap: butt; stroke-dashoffset: 0; stroke-linejoin: miter; stroke-miterlimit: 4; fill: rgb(0,0,0); fill-rule: nonzero; opacity: 1;"  transform=" translate(-736.27, -467.75)" d="M 740.430786 477.682678 C 742.648621 480.471039 744.15741 483.139435 741.334778 485.918671 C 738.549072 488.661591 735.875305 487.210632 733.346436 485.248138 C 724.675964 478.519531 716.027649 471.76178 707.310791 465.093781 C 704.070984 462.615509 704.41095 459.460724 705.040039 456.19809 C 706.94397 454.678497 708.642883 456.255859 710.376648 456.248047 C 709.250122 449.022491 711.415344 446.794312 718.330933 448.74231 C 732.736328 452.80011 747.061401 457.143219 761.410645 461.399048 C 762.519409 461.727905 763.61261 462.196564 764.618774 462.766632 C 766.740601 463.968872 768.61261 465.450836 767.657898 468.299408 C 766.784119 470.906464 765.055481 472.529022 762.088684 472.340881 C 756.223816 471.969025 750.723755 470.022552 745.183533 468.315216 C 736.473572 465.631104 727.810669 462.794373 718.720154 460.795441 C 725.875427 466.332886 733.030701 471.870361 740.430786 477.682678 z" stroke-linecap="round" />
</g>
		<g transform="matrix(1 0 0 1 43.32 -115.69)" id="Layer_1"  >
<path style="stroke: none; stroke-width: 1; stroke-dasharray: none; stroke-linecap: butt; stroke-dashoffset: 0; stroke-linejoin: miter; stroke-miterlimit: 4; fill: rgb(0,0,0); fill-rule: nonzero; opacity: 1;"  transform=" translate(-555.32, -396.31)" d="M 567.932861 409.065186 C 558.114075 409.040497 548.78186 408.936798 539.452026 409.041382 C 534.476685 409.097137 532.423828 406.919464 532.151917 401.925201 C 531.593201 391.662292 538.103943 384.370178 548.361206 383.637665 C 559.593506 382.83548 567.808716 386.812622 572.625366 397.234314 C 574.282593 400.819977 576.137878 404.314117 578.512939 409.072784 C 574.550903 409.072784 571.485657 409.072784 567.932861 409.065186 z" stroke-linecap="round" />
</g>
		<g transform="matrix(1 0 0 1 227.94 -72.14)" id="Layer_1"  >
<path style="stroke: none; stroke-width: 1; stroke-dasharray: none; stroke-linecap: butt; stroke-dashoffset: 0; stroke-linejoin: miter; stroke-miterlimit: 4; fill: rgb(0,0,0); fill-rule: nonzero; opacity: 1;"  transform=" translate(-739.94, -439.86)" d="M 746.939453 445.138916 C 739.496277 444.848053 732.537292 444.649994 725.588684 444.264374 C 722.485779 444.092163 719.752258 442.625122 720.159363 439.166931 C 720.55719 435.787811 723.183167 433.905792 726.671143 434.635162 C 735.88385 436.561554 745.163574 435.47876 754.411072 435.481903 C 757.335876 435.48288 759.429626 436.046265 759.729492 439.195343 C 760.027039 442.31958 758.147583 444.378662 755.343506 444.948029 C 752.795959 445.465332 750.073364 445.120239 746.939453 445.138916 z" stroke-linecap="round" />
</g>
</g>
</g>
</svg>